# xmcd
# 
# Track frame offsets:
#     150
#     37429
#     55641
# 
# Disc length: 968
# 
# Revision: 1
# Processed by: cddbd v1.5.2PL0 Copyright (c) Steve Scherf et al.
# Submitted via: fre:ac v1.0.31
# 
DISCID=2403c603
DTITLE=Anton aus Tirol - der ultimative Mega Mix (Maxi)
DYEAR=0
DGENRE=Schlager
TTITLE0=Anton aus Tirol Mega Mix
TTITLE1=Wo der Handschlag no zählt...
TTITLE2=Anton aus Tirol (English Version)
EXTD=
EXTT0=
EXTT1=
EXTT2=
PLAYORDER=
